<mxfile host="app.diagrams.net" modified="2024-07-26T20:58:19.453Z" agent="Mozilla/5.0 (Windows NT 10.0; Win64; x64) AppleWebKit/537.36 (KHTML, like Gecko) Chrome/126.0.0.0 Safari/537.36" etag="dMY_jVsYsEAvZUkhGTZj" version="24.6.2" type="device">
  <diagram name="Page-1" id="UVrdi4GD2WVLUjD5QYKt">
    <mxGraphModel dx="875" dy="442" grid="1" gridSize="10" guides="1" tooltips="1" connect="1" arrows="1" fold="1" page="1" pageScale="1" pageWidth="850" pageHeight="1100" math="0" shadow="0">
      <root>
        <mxCell id="0" />
        <mxCell id="1" parent="0" />
        <mxCell id="k-Sry2fkS16kkjJ7Y7ue-1" value="mainReactor&lt;div&gt;&lt;br&gt;&lt;div&gt;&lt;div style=&quot;&quot;&gt;&lt;span style=&quot;background-color: initial;&quot;&gt;epoll&lt;/span&gt;&lt;/div&gt;&lt;div&gt;IO Threads&lt;/div&gt;&lt;/div&gt;&lt;/div&gt;" style="rounded=1;whiteSpace=wrap;html=1;align=left;" vertex="1" parent="1">
          <mxGeometry x="110" y="180" width="80" height="80" as="geometry" />
        </mxCell>
        <mxCell id="k-Sry2fkS16kkjJ7Y7ue-2" value="subReactor&lt;div&gt;&lt;br&gt;epoll&lt;div&gt;worker thread&lt;/div&gt;&lt;/div&gt;" style="rounded=1;whiteSpace=wrap;html=1;align=left;" vertex="1" parent="1">
          <mxGeometry x="400" y="30" width="80" height="80" as="geometry" />
        </mxCell>
        <mxCell id="k-Sry2fkS16kkjJ7Y7ue-5" value="subReactor&lt;div&gt;&lt;br&gt;epoll&lt;br&gt;&lt;div&gt;&lt;span style=&quot;background-color: initial;&quot;&gt;worker&lt;/span&gt;&amp;nbsp;thread&lt;/div&gt;&lt;/div&gt;" style="rounded=1;whiteSpace=wrap;html=1;align=left;" vertex="1" parent="1">
          <mxGeometry x="400" y="180" width="80" height="80" as="geometry" />
        </mxCell>
        <mxCell id="k-Sry2fkS16kkjJ7Y7ue-6" value="subReactor&lt;div&gt;&lt;br&gt;epoll&lt;div&gt;worker thread&lt;/div&gt;&lt;/div&gt;" style="rounded=1;whiteSpace=wrap;html=1;align=left;" vertex="1" parent="1">
          <mxGeometry x="400" y="310" width="80" height="80" as="geometry" />
        </mxCell>
        <mxCell id="k-Sry2fkS16kkjJ7Y7ue-7" value="acceptor" style="ellipse;whiteSpace=wrap;html=1;" vertex="1" parent="1">
          <mxGeometry x="260" y="195" width="60" height="50" as="geometry" />
        </mxCell>
        <mxCell id="k-Sry2fkS16kkjJ7Y7ue-8" value="" style="image;html=1;image=img/lib/clip_art/computers/Laptop_128x128.png" vertex="1" parent="1">
          <mxGeometry x="10" y="120" width="50" height="50" as="geometry" />
        </mxCell>
        <mxCell id="k-Sry2fkS16kkjJ7Y7ue-9" value="" style="image;html=1;image=img/lib/clip_art/computers/Laptop_128x128.png" vertex="1" parent="1">
          <mxGeometry x="10" y="210" width="50" height="50" as="geometry" />
        </mxCell>
        <mxCell id="k-Sry2fkS16kkjJ7Y7ue-10" value="" style="image;html=1;image=img/lib/clip_art/computers/Laptop_128x128.png" vertex="1" parent="1">
          <mxGeometry x="10" y="290" width="50" height="60" as="geometry" />
        </mxCell>
        <mxCell id="k-Sry2fkS16kkjJ7Y7ue-11" value="read" style="shape=process;whiteSpace=wrap;html=1;backgroundOutline=1;" vertex="1" parent="1">
          <mxGeometry x="520" y="30" width="50" height="20" as="geometry" />
        </mxCell>
        <mxCell id="k-Sry2fkS16kkjJ7Y7ue-12" value="decode" style="shape=process;whiteSpace=wrap;html=1;backgroundOutline=1;" vertex="1" parent="1">
          <mxGeometry x="580" y="30" width="60" height="20" as="geometry" />
        </mxCell>
        <mxCell id="k-Sry2fkS16kkjJ7Y7ue-13" value="compute" style="shape=process;whiteSpace=wrap;html=1;backgroundOutline=1;" vertex="1" parent="1">
          <mxGeometry x="650" y="30" width="70" height="20" as="geometry" />
        </mxCell>
        <mxCell id="k-Sry2fkS16kkjJ7Y7ue-14" value="encode" style="shape=process;whiteSpace=wrap;html=1;backgroundOutline=1;" vertex="1" parent="1">
          <mxGeometry x="730" y="30" width="60" height="20" as="geometry" />
        </mxCell>
        <mxCell id="k-Sry2fkS16kkjJ7Y7ue-15" value="send" style="shape=process;whiteSpace=wrap;html=1;backgroundOutline=1;" vertex="1" parent="1">
          <mxGeometry x="800" y="30" width="50" height="20" as="geometry" />
        </mxCell>
      </root>
    </mxGraphModel>
  </diagram>
</mxfile>
